PathFileType	4	(X/Y/Z)
DataRate	CameraRate	NumFrames	NumMarkers	Units	OrigDataRate	OrigDataStartFrame	OrigNumFrames	
  100.0	  100.0	    6	     56	     mm	  100.0	      107	    855
Frame#	Time	LASI			RASI			LPSI			RPSI			RTH1			RTH2			RTH3			RLFC			RMFC			LTH1			LTH2			LTH3			LLFC			LMFC			RTB1			RTB2			RTB3			RLMAL			RMMAL			LTB1			LTB2			LTB3			LMMAL			LLMAL			RCAL			RTOE			RMT5			LCAL			LTOE			LMT5			LACR			RACR			CLAV			C7			LASH			LPSH			RASH			RPSH			RUA1			RUA2			RUA3			RLEL			RMEL			LUA1			LUA2			LUA3			LLEL			LMEL			RFAsuperior			RFAradius			RFAulna			LFAsuperior			LFAradius			LFAulna			RHJC			LHJC			
		X1	Y1	Z1	X2	Y2	Z2	X3	Y3	Z3	X4	Y4	Z4	X5	Y5	Z5	X6	Y6	Z6	X7	Y7	Z7	X8	Y8	Z8	X9	Y9	Z9	X10	Y10	Z10	X11	Y11	Z11	X12	Y12	Z12	X13	Y13	Z13	X14	Y14	Z14	X15	Y15	Z15	X16	Y16	Z16	X17	Y17	Z17	X18	Y18	Z18	X19	Y19	Z19	X20	Y20	Z20	X21	Y21	Z21	X22	Y22	Z22	X23	Y23	Z23	X24	Y24	Z24	X25	Y25	Z25	X26	Y26	Z26	X27	Y27	Z27	X28	Y28	Z28	X29	Y29	Z29	X30	Y30	Z30	X31	Y31	Z31	X32	Y32	Z32	X33	Y33	Z33	X34	Y34	Z34	X35	Y35	Z35	X36	Y36	Z36	X37	Y37	Z37	X38	Y38	Z38	X39	Y39	Z39	X40	Y40	Z40	X41	Y41	Z41	X42	Y42	Z42	X43	Y43	Z43	X44	Y44	Z44	X45	Y45	Z45	X46	Y46	Z46	X47	Y47	Z47	X48	Y48	Z48	X49	Y49	Z49	X50	Y50	Z50	X51	Y51	Z51	X52	Y52	Z52	X53	Y53	Z53	X54	Y54	Z54	X55	Y55	Z55	X56	Y56	Z56	

138	1.38000	896.08835	1087.60099	-509.65846	655.22634	1093.69388	-497.82050	814.51143	1109.88606	-674.47835	729.96558	1108.15399	-670.32710	595.67725	833.48706	-589.47103	616.51149	760.36085	-521.84641	613.53546	662.39354	-596.39850	612.17405	543.14507	-581.37107	724.61611	525.86737	-595.76786	941.34175	866.62023	-615.19818	951.00522	756.55908	-547.97155	938.24838	657.54708	-604.96120	938.59244	537.63260	-582.02828	829.43875	523.15579	-596.97738	649.11674	409.97638	-561.38540	609.68227	356.08762	-609.04533	659.85728	228.81083	-587.57115	651.96100	118.10534	-633.40769	728.15921	139.93945	-602.98666	914.09159	420.58247	-566.21947	925.83552	320.68396	-651.72987	886.68670	231.04540	-583.26539	809.19166	126.77011	-595.98085	889.72350	110.77593	-622.35073	720.57696	97.47319	-684.10014	675.50442	74.36654	-462.08562	609.65078	55.30139	-539.88169	830.49010	87.30386	-680.52217	853.37865	76.66346	-454.46555	919.81166	56.30165	-515.30615	915.06444	1590.40696	-627.83443	630.28880	1566.36185	-611.25765	755.64796	1519.92269	-543.37440	771.34066	1593.09260	-671.10290	893.22639	1553.92497	-561.90946	957.09608	1534.21774	-674.87050	647.99917	1537.01263	-551.01154	591.87342	1532.01500	-656.85277	542.17923	1485.40619	-500.76476	531.48100	1407.15560	-465.36009	512.29978	1416.65405	-393.33731	501.23375	1407.97867	-320.09305	563.33882	1352.49619	-339.63677	1000.26400	1493.25950	-547.06650	999.07111	1423.95149	-467.63212	1020.87343	1456.80361	-398.72303	1030.67774	1437.86359	-314.60373	970.37229	1380.39970	-336.37698	499.36158	1377.85370	-243.88565	580.30971	1361.38304	-54.97549	512.94859	1346.29288	-55.23043	1030.75196	1395.23366	-225.49172	951.82044	1390.58829	-64.08153	1018.34967	1376.45614	-59.94846	669.89724	988.18966	-576.20310	876.24288	980.71391	-580.44435	
139	1.39000	896.12387	1087.57431	-509.61961	655.25456	1093.67977	-497.71223	814.49946	1109.85958	-674.37338	729.95017	1108.13002	-670.20583	595.86732	833.37313	-589.49515	616.59798	760.36642	-521.62646	613.56777	662.44209	-596.45164	612.19928	543.14532	-581.32842	724.60730	525.85968	-595.75266	941.31254	866.59976	-615.10633	951.03146	756.51348	-547.83209	938.24094	657.52347	-604.90211	938.60565	537.60851	-581.99594	829.45022	523.15332	-596.94437	649.13245	409.95334	-561.39453	609.66099	356.05429	-609.04894	659.89831	228.76715	-587.69937	651.96750	118.10125	-633.42622	728.16466	139.92073	-602.99429	914.10645	420.56541	-566.27029	925.81250	320.65433	-651.69951	886.69712	231.03364	-583.27679	809.18581	126.75992	-595.98609	889.69855	110.70349	-622.30914	720.56246	97.45691	-684.09268	675.50438	74.36250	-462.08946	609.65414	55.30526	-539.88754	830.45292	87.26410	-680.47863	853.37554	76.65627	-454.52301	919.80646	56.29028	-515.35405	915.69549	1589.57012	-627.61397	629.75027	1565.79641	-611.03347	755.61101	1519.74388	-543.31695	771.43371	1593.00439	-671.20675	894.03056	1552.49787	-561.67011	957.10204	1533.18662	-675.10190	646.86378	1535.89770	-550.64284	591.65887	1531.23636	-656.82857	542.15129	1479.95545	-501.89794	532.07608	1400.27942	-469.20417	512.57762	1406.96836	-397.03596	501.36012	1395.17961	-324.58644	563.51950	1341.57991	-345.53292	1000.34528	1488.96714	-548.45182	998.81368	1417.07365	-471.29761	1020.80507	1447.55413	-401.52412	1030.56536	1425.68240	-318.18028	970.16634	1368.79608	-342.23669	499.80260	1362.53757	-249.28811	580.87707	1339.95575	-61.07916	513.58817	1324.15437	-61.99632	1030.53497	1379.86799	-230.96625	951.30982	1370.07535	-69.56798	1017.83727	1355.92717	-65.73943	669.90381	988.17298	-576.08650	876.24784	980.68660	-580.38558	
140	1.40000	896.17909	1087.53697	-509.57026	655.29970	1093.67744	-497.56713	814.49145	1109.83492	-674.23834	729.93479	1108.07981	-670.06936	596.07087	833.29247	-589.46658	616.70305	760.34538	-521.39143	613.46742	662.50711	-596.43818	612.22043	543.10167	-581.21238	724.61525	525.82980	-595.66701	941.30091	866.57494	-615.00580	951.06260	756.46970	-547.70385	938.24870	657.49203	-604.82433	938.62380	537.57943	-581.95566	829.43827	523.12180	-596.79337	649.19005	409.86900	-561.42609	609.65923	356.03150	-608.74415	660.02339	228.84357	-587.60203	651.97455	118.09075	-633.42248	728.18030	139.89746	-602.99779	914.13110	420.54125	-566.38979	925.79296	320.62068	-651.66707	886.70924	231.01192	-583.27612	809.17967	126.74778	-595.98229	889.66138	110.60324	-622.24180	720.55966	97.43799	-684.08968	675.50872	74.36270	-462.08950	609.68255	55.31087	-539.89102	830.42707	87.22407	-680.45084	853.37180	76.64791	-454.58270	919.81085	56.27899	-515.40748	916.40612	1588.67634	-627.22140	629.15261	1565.10733	-610.69036	755.58515	1519.55544	-543.21630	771.49029	1592.89691	-671.20709	894.89337	1551.01951	-561.25982	957.15037	1532.15723	-675.19539	645.68437	1534.74643	-550.19172	591.46032	1530.47693	-656.76517	542.05176	1474.45994	-503.11715	532.67630	1393.49498	-473.17375	512.94800	1397.47547	-400.96686	501.69663	1382.66082	-329.33333	563.92456	1330.88644	-351.72234	1000.35391	1484.61824	-549.76316	998.52890	1410.11323	-475.06660	1020.79011	1438.16343	-404.48041	1030.43517	1413.32946	-322.05676	969.69162	1357.54532	-348.08434	500.43062	1347.38402	-255.15931	581.48524	1318.12498	-68.00878	514.53603	1301.86587	-69.57109	1030.24534	1364.41421	-236.75833	950.75584	1349.34655	-75.68690	1017.35659	1335.10154	-72.26338	669.91186	988.16068	-575.92699	876.25310	980.64494	-580.30532	
141	1.41000	896.25889	1087.49683	-509.47376	655.35721	1093.66798	-497.37375	814.48259	1109.80198	-674.08911	729.91953	1108.01020	-669.91906	596.08740	833.27909	-589.24911	616.79992	760.28955	-521.17749	613.41439	662.52734	-596.21126	612.23118	543.02989	-580.98403	724.63149	525.78732	-595.52832	941.31320	866.54695	-614.91036	951.09812	756.43263	-547.61267	938.27216	657.45665	-604.73432	938.65464	537.54688	-581.92334	829.41658	523.06252	-596.52142	649.27092	409.74831	-561.43487	609.68512	356.00257	-608.37413	660.18614	229.00317	-587.25553	651.98023	118.07124	-633.39216	728.20726	139.87512	-603.00157	914.16258	420.50979	-566.50020	925.78702	320.58823	-651.64041	886.71974	230.97108	-583.26309	809.18102	126.73141	-595.96562	889.62807	110.51681	-622.18441	720.56989	97.41859	-684.09003	675.51700	74.36663	-462.08690	609.73803	55.30754	-539.90735	830.41685	87.19286	-680.44328	853.37215	76.64479	-454.60593	919.81957	56.27635	-515.41859	917.19312	1587.73641	-626.58356	628.52172	1564.32104	-610.26346	755.54854	1519.32068	-543.06249	771.51513	1592.78303	-671.05380	895.91503	1549.53348	-560.66193	957.26233	1531.20939	-675.19726	644.48982	1533.50391	-549.65834	591.27069	1529.70334	-656.64759	541.93125	1468.92565	-504.43346	533.12490	1386.81183	-477.17632	513.39206	1388.16768	-405.11249	502.13407	1370.60705	-334.09801	564.45690	1320.61262	-357.96212	1000.32217	1480.23322	-551.05941	998.16388	1403.12850	-478.95794	1020.86999	1428.70978	-407.66040	1030.27398	1400.96490	-326.20619	969.01878	1346.78815	-353.80073	501.20155	1332.45668	-261.44626	582.22130	1295.98630	-75.89813	515.69514	1279.67206	-77.90313	1029.83622	1349.04523	-242.77325	950.08484	1328.44856	-82.45098	1016.78440	1313.98497	-79.53248	669.93386	988.13546	-575.71217	876.27261	980.59699	-580.19068	
142	1.42000	896.35566	1087.45998	-509.32627	655.41603	1093.63367	-497.14207	814.47045	1109.75044	-673.94095	729.90746	1107.93728	-669.75198	595.83099	833.31557	-588.79543	616.86717	760.21572	-520.97218	613.52869	662.47357	-595.74063	612.24117	542.98961	-580.65276	724.65824	525.74366	-595.35556	941.34081	866.51607	-614.81433	951.13656	756.39942	-547.54030	938.30527	657.42281	-604.63521	938.69642	537.50568	-581.87455	829.41440	523.00730	-596.23018	649.33908	409.65560	-561.33330	609.71992	355.93643	-608.21931	660.28305	229.09886	-586.90638	651.98540	118.04813	-633.35284	728.24176	139.85780	-603.00684	914.19019	420.47334	-566.49887	925.79854	320.56227	-651.61938	886.72777	230.91538	-583.24743	809.19029	126.70908	-595.94444	889.60922	110.46964	-622.16335	720.58866	97.40340	-684.09465	675.52729	74.36959	-462.08521	609.80911	55.28796	-539.94634	830.42163	87.17677	-680.45600	853.37662	76.64621	-454.59934	919.82662	56.27987	-515.40256	918.01397	1586.79696	-625.76031	627.90116	1563.48444	-609.77067	755.48333	1519.03738	-542.79629	771.53387	1592.67700	-670.75273	897.09545	1548.04888	-559.91218	957.42575	1530.36945	-675.16146	643.33668	1532.09501	-549.11187	591.08496	1528.89029	-656.44184	541.87394	1463.43477	-505.81425	533.44725	1380.24711	-481.21119	513.91215	1379.04103	-409.41821	502.67452	1358.95468	-338.93066	565.09745	1310.74623	-364.26639	1000.31492	1475.87656	-552.41878	997.71192	1396.23137	-482.98521	1020.97542	1419.29680	-411.13629	1030.03967	1388.76177	-330.63792	968.34757	1336.30055	-359.69027	502.07647	1317.79854	-268.10382	583.18161	1273.78187	-84.68178	516.89647	1257.74933	-86.93315	1029.29814	1333.85838	-249.08778	949.29376	1307.44087	-89.91701	1016.10125	1292.64322	-87.70193	669.97520	988.08525	-575.45890	876.31271	980.55064	-580.04480	
143	1.43000	896.43865	1087.43430	-509.13686	655.45728	1093.56594	-496.90061	814.45780	1109.67958	-673.79657	729.90502	1107.87627	-669.56912	595.48096	833.34457	-588.24273	616.90272	760.15204	-520.73587	613.78121	662.37896	-595.16728	612.26520	542.98828	-580.31161	724.70100	525.70864	-595.16518	941.37198	866.48497	-614.70607	951.17716	756.36538	-547.45439	938.34398	657.39448	-604.52921	938.73284	537.44557	-581.74794	829.44637	522.97859	-596.05347	649.37658	409.63088	-561.08772	609.74603	355.85165	-608.28219	660.25893	229.01688	-586.84296	651.99441	118.03136	-633.32899	728.27580	139.84270	-603.01020	914.20768	420.43446	-566.36622	925.82216	320.54444	-651.59524	886.73536	230.86071	-583.23741	809.19981	126.68416	-595.93418	889.60530	110.45960	-622.18120	720.60967	97.39424	-684.10593	675.53680	74.36999	-462.08688	609.86790	55.26278	-539.98911	830.43710	87.17259	-680.48291	853.38169	76.64829	-454.59205	919.82620	56.27628	-515.43197	918.82235	1585.89532	-624.86861	627.31511	1562.64373	-609.20422	755.39562	1518.73711	-542.36244	771.56760	1592.58979	-670.33813	898.32490	1546.55468	-559.06224	957.61050	1529.61294	-675.09898	642.25263	1530.46704	-548.67463	590.90827	1528.03987	-656.12122	541.93437	1458.06600	-507.20749	533.91517	1373.86411	-485.38975	514.52881	1370.12256	-413.82180	503.43306	1347.50638	-344.06660	565.94639	1301.10730	-370.85742	1000.38217	1471.61888	-553.91854	997.21514	1389.54096	-487.16880	1020.98460	1410.04787	-414.89885	1029.70848	1376.80740	-335.42056	967.86094	1325.82476	-366.17210	503.06891	1303.43508	-275.11549	584.36325	1251.83173	-94.11496	518.06614	1236.14981	-96.64675	1028.68673	1318.87235	-255.86247	948.45226	1286.36553	-98.20794	1015.37090	1271.17597	-96.97015	670.02977	988.00790	-575.20514	876.36797	980.51494	-579.86927	
